<svg xmlns="http://www.w3.org/2000/svg" viewBox="0 0 256 256" width="256" height="256" role="img" aria-labelledby="t"><title id="t">Otter Skills logo</title>
<path fill="#000000" d="M128 111C146.21 111 162.58 116.57 173.92 125.44C175.57 123.34 178.13 122 181 122C185.97 122 190 126.03 190 131C190 134.28 188.24 137.15 185.62 138.72C188.45 143.76 190 149.25 190 155C190 172.96 177.26 188.61 158.40 196.85C161.76 198.97 164 202.72 164 207C164 213.63 158.63 219 152 219C145.37 219 140 213.63 140 207C140 205.19 140.40 203.46 141.12 201.92C136.89 202.63 132.50 203 128 203C123.50 203 119.11 202.63 114.88 201.92C115.60 203.46 116 205.19 116 207C116 213.63 110.63 219 104 219C97.37 219 92 213.63 92 207C92 202.72 94.24 198.97 97.60 196.85C78.74 188.61 66 172.96 66 155C66 149.25 67.55 143.76 70.38 138.72C67.76 137.15 66 134.28 66 131C66 126.03 70.03 122 75 122C77.87 122 80.43 123.34 82.08 125.44C93.42 116.57 109.79 111 128 111ZM173.94 79.23C148.17 54.92 107.83 54.92 82.06 79.23L55.18 52.35C95.81 13.22 160.19 13.22 200.82 52.35ZM185.31 182.48C191.46 174.46 195 165.06 195 155C195 151.07 194.37 147.25 193.17 143.58C198.24 122.30 192.77 99.03 176.77 82.06L203.65 55.18C242.78 95.81 242.78 160.19 203.65 200.82ZM62.83 143.58C61.63 147.25 61 151.07 61 155C61 165.06 64.54 174.46 70.69 182.48L52.35 200.82C13.22 160.19 13.22 95.81 52.35 55.18L79.23 82.06C63.23 99.03 57.76 122.30 62.83 143.58ZM73.26 185.57C77.68 190.51 83.13 194.82 89.38 198.32C87.87 200.86 87 203.83 87 207C87 216.39 94.61 224 104 224C113.15 224 120.61 216.77 120.99 207.71C123.29 207.90 125.63 208 128 208C130.37 208 132.71 207.90 135.01 207.71C135.39 216.77 142.85 224 152 224C161.39 224 169 216.39 169 207C169 203.83 168.13 200.86 166.62 198.32C172.87 194.82 178.32 190.51 182.74 185.57L200.82 203.65C160.19 242.78 95.81 242.78 55.18 203.65ZM115 157.40C105.78 157.40 98.30 163.94 98.30 172C98.30 180.06 105.78 186.60 115 186.60C120.25 186.60 124.94 184.48 128 181.17C131.06 184.48 135.75 186.60 141 186.60C150.22 186.60 157.70 180.06 157.70 172C157.70 163.94 150.22 157.40 141 157.40L140.99 157.40C142.02 155.69 142.75 154.29 143 153.55C144 150.55 140 149.05 128 149.05C116 149.05 112 150.55 113 153.55C113.25 154.29 113.98 155.69 115.01 157.40ZM128 151.75C136.50 151.75 140.50 153.25 139.50 156.25C138.50 159.25 133 167.25 128 168.25C123 167.25 117.50 159.25 116.50 156.25C115.50 153.25 119.50 151.75 128 151.75ZM104.50 137.50C100.91 137.50 98 140.41 98 144C98 147.59 100.91 150.50 104.50 150.50C108.09 150.50 111 147.59 111 144C111 140.41 108.09 137.50 104.50 137.50ZM151.50 137.50C147.91 137.50 145 140.41 145 144C145 147.59 147.91 150.50 151.50 150.50C155.09 150.50 158 147.59 158 144C158 140.41 155.09 137.50 151.50 137.50ZM73.50 126.45C71.26 126.45 69.45 128.26 69.45 130.50C69.45 132.60 71.05 134.33 73.10 134.53C74.39 132.79 75.84 131.12 77.43 129.53C77 127.76 75.40 126.45 73.50 126.45ZM182.50 126.45C180.60 126.45 179 127.76 178.57 129.53C180.16 131.12 181.61 132.79 182.90 134.53C184.95 134.33 186.55 132.60 186.55 130.50C186.55 128.26 184.74 126.45 182.50 126.45ZM105.70 139.55C107.49 139.55 108.95 141.01 108.95 142.80C108.95 144.59 107.49 146.05 105.70 146.05C103.91 146.05 102.45 144.59 102.45 142.80C102.45 141.01 103.91 139.55 105.70 139.55ZM152.70 139.55C154.49 139.55 155.95 141.01 155.95 142.80C155.95 144.59 154.49 146.05 152.70 146.05C150.91 146.05 149.45 144.59 149.45 142.80C149.45 141.01 150.91 139.55 152.70 139.55Z"/>
</svg>
